<?xml version="1.0" encoding="UTF-8" standalone="no"?>
<!-- Created with Inkscape (http://www.inkscape.org/) -->

<svg
   xmlns:dc="http://purl.org/dc/elements/1.1/"
   xmlns:cc="http://creativecommons.org/ns#"
   xmlns:rdf="http://www.w3.org/1999/02/22-rdf-syntax-ns#"
   xmlns:svg="http://www.w3.org/2000/svg"
   xmlns="http://www.w3.org/2000/svg"
   xmlns:sodipodi="http://sodipodi.sourceforge.net/DTD/sodipodi-0.dtd"
   xmlns:inkscape="http://www.inkscape.org/namespaces/inkscape"
   width="181"
   height="42"
   viewBox="0 0 181 42"
   id="svg2"
   version="1.1"
   inkscape:version="0.91 r13725"
   sodipodi:docname="salesanswers_logo.svg"
   inkscape:export-filename="C:\ionic\Luis_Cabrera_LLC\salesanswers.app\img\logo.png"
   inkscape:export-xdpi="90"
   inkscape:export-ydpi="90">
  <defs
     id="defs4">
    <clipPath
       clipPathUnits="userSpaceOnUse"
       id="clipPath4178">
      <rect
         style="opacity:0.25;fill:#00ffff;fill-opacity:1;stroke:none;stroke-width:0.5;stroke-miterlimit:4;stroke-dasharray:none;stroke-opacity:0.72835819"
         id="rect4180"
         width="32.968311"
         height="42"
         x="16.499998"
         y="956.36218" />
    </clipPath>
  </defs>
  <sodipodi:namedview
     id="base"
     pagecolor="#ffffff"
     bordercolor="#666666"
     borderopacity="1.0"
     inkscape:pageopacity="0"
     inkscape:pageshadow="2"
     inkscape:zoom="4.0000001"
     inkscape:cx="141.25913"
     inkscape:cy="30.187427"
     inkscape:document-units="px"
     inkscape:current-layer="layer1"
     showgrid="false"
     units="px"
     inkscape:window-width="1920"
     inkscape:window-height="1027"
     inkscape:window-x="1912"
     inkscape:window-y="-8"
     inkscape:window-maximized="1" />
  <metadata
     id="metadata7">
    <rdf:RDF>
      <cc:Work
         rdf:about="">
        <dc:format>image/svg+xml</dc:format>
        <dc:type
           rdf:resource="http://purl.org/dc/dcmitype/StillImage" />
        <dc:title></dc:title>
      </cc:Work>
    </rdf:RDF>
  </metadata>
  <g
     inkscape:label="Layer 1"
     inkscape:groupmode="layer"
     id="layer1"
     transform="translate(0,-1010.3622)">
    <path
       style="fill:#1f538d;fill-opacity:1"
       d="m 6.706301,998.1947 c -0.2480197,-0.062 -0.8038796,-0.7402 -1.0720533,-1.3088 -0.2549872,-0.5407 -0.2404522,-1.4077 0.031838,-1.8996 0.1174649,-0.2121 3.3015946,-4.0827 7.0758343,-8.6015 6.469382,-7.7451 6.888426,-8.2228 7.319301,-8.3423 0.308108,-0.084 0.569263,-0.085 0.801442,-0.017 0.189418,0.068 2.025279,1.2803 4.079686,2.6951 2.054407,1.415 3.774333,2.5703 3.822065,2.5673 0.0923,-0.017 9.562909,-15.9525 9.512541,-16.0177 -0.01631,-0.021 -0.747142,0.2626 -1.624035,0.6303 -1.426526,0.5986 -1.632478,0.6555 -1.956594,0.5429 -0.199234,-0.068 -0.471901,-0.2379 -0.605932,-0.3743 -0.289269,-0.2942 -0.635551,-1.4159 -0.635054,-2.0573 3.83e-4,-0.5145 0.263116,-1.1502 0.588389,-1.4235 0.119962,-0.101 2.09262,-0.9618 4.383695,-1.9133 l 4.165579,-1.7297 0.04296,-0.017 c 0.883975,-0.1627 1.647487,0.9437 1.719657,1.6405 0.03051,0.2947 0.196343,2.6372 0.308305,5.2206 0.222601,5.1367 0.221463,5.158 -0.304078,5.7301 -0.318359,0.3461 -1.200221,0.6146 -1.656704,0.5038 -0.348018,-0.084 -0.835197,-0.5536 -1.008089,-0.971 -0.05992,-0.1436 -0.155064,-1.0869 -0.211438,-2.094 l -0.102493,-1.8309 -5.26826,8.8888 c -2.897544,4.8888 -5.417766,9.1043 -5.600496,9.3679 -0.394765,0.5696 -0.795681,0.8101 -1.350295,0.8101 -0.34848,0 -0.986809,-0.3983 -4.429703,-2.765 l -4.022553,-2.7647 -0.533105,0.6508 c -4.164736,5.0841 -12.1684678,14.5645 -12.4326213,14.7261 -0.3377532,0.2068 -0.5982122,0.2395 -1.0377844,0.1317 z"
       id="path4146"
       inkscape:connector-curvature="0"
       sodipodi:nodetypes="csssscscsssscsscssssscscsssscsscc"
       clip-path="url(#clipPath4178)"
       transform="translate(-16.25,57.499999)" />
    <text
       xml:space="preserve"
       style="font-style:normal;font-weight:normal;font-size:33.89793015px;line-height:125%;font-family:sans-serif;letter-spacing:0px;word-spacing:0px;fill:#1f538d;fill-opacity:1;stroke:none;stroke-width:1px;stroke-linecap:butt;stroke-linejoin:miter;stroke-opacity:1"
       x="85.716568"
       y="1043.9104"
       id="text4150-9"
       sodipodi:linespacing="125%"><tspan
         sodipodi:role="line"
         id="tspan4152-9"
         x="85.716568"
         y="1043.9104"
         style="font-style:normal;font-variant:normal;font-weight:normal;font-stretch:normal;font-size:33.89793015px;line-height:125%;font-family:Haettenschweiler;-inkscape-font-specification:'Haettenschweiler, Normal';text-align:start;writing-mode:lr-tb;text-anchor:start;fill:#1f538d;fill-opacity:1">Answers</tspan></text>
    <text
       xml:space="preserve"
       style="font-style:normal;font-weight:normal;font-size:33.59671783px;line-height:125%;font-family:sans-serif;letter-spacing:0px;word-spacing:0px;fill:#000000;fill-opacity:1;stroke:none;stroke-width:1px;stroke-linecap:butt;stroke-linejoin:miter;stroke-opacity:1"
       x="31.356304"
       y="1043.9122"
       id="text4150"
       sodipodi:linespacing="125%"><tspan
         sodipodi:role="line"
         id="tspan4152"
         x="31.356304"
         y="1043.9122"
         style="font-style:normal;font-variant:normal;font-weight:normal;font-stretch:normal;font-size:33.59671783px;line-height:125%;font-family:Haettenschweiler;-inkscape-font-specification:'Haettenschweiler, Normal';text-align:start;writing-mode:lr-tb;text-anchor:start">Sales</tspan></text>
  </g>
</svg>
